# Blender v2.79 (sub 0) OBJ File: 'gearbox.blend'
# www.blender.org
mtllib gearbox_cabinet.mtl
o Cabinet_Cube
v 0.500000 0.050000 0.950000
v 0.500000 0.050000 0.050000
v 0.500000 0.950000 0.950000
v 0.500000 0.950000 0.050000
v 0.900000 0.000000 0.000000
v 0.900000 0.000000 1.000000
v -0.000000 0.000000 1.000000
v 0.000000 0.000000 -0.000000
v 0.900000 1.000000 0.000000
v 0.900000 1.000000 1.000000
v -0.000000 1.000000 1.000000
v 0.000000 1.000000 0.000000
v 0.900000 0.850000 0.950000
v 0.900000 0.050000 0.950000
v 0.900000 0.950000 0.950000
v 0.900000 0.050000 0.050000
v 0.900000 0.150000 0.050000
v 0.900000 0.950000 0.050000
vt 0.999900 0.000100
vt 0.000100 0.999900
vt 0.000100 0.000100
vt 0.000100 0.999900
vt 0.999900 0.000100
vt 0.999900 0.999900
vt 0.000100 0.999900
vt 0.999899 0.000100
vt 0.999900 0.999899
vt 0.050090 0.949910
vt 0.949910 0.949909
vt 0.999900 0.999900
vt 0.000100 0.000100
vt 0.999900 0.000100
vt 0.000100 0.999900
vt 0.999900 0.000100
vt 0.999900 0.999900
vt 0.000100 0.000100
vt 0.999900 0.000100
vt 0.000070 0.493828
vt 0.999930 0.000070
vt 0.999930 0.493828
vt 0.949910 0.050090
vt 0.050090 0.050090
vt 0.000100 0.000100
vt 0.493828 0.000070
vt 0.000070 0.999930
vt 0.000070 0.000070
vt 0.999930 0.000070
vt 0.999930 0.493828
vt 0.888834 0.493828
vt 0.000071 0.000071
vt 0.493828 0.000070
vt 0.493828 0.111166
vt 0.999900 0.999900
vt 0.000100 0.000100
vt 0.949910 0.150070
vt 0.999899 0.000100
vt 0.000100 0.999900
vt 0.050090 0.849929
vt 0.000100 0.999900
vt 0.000100 0.999900
vt 0.000070 0.000071
vt 0.493828 0.999930
vt 0.000070 0.493828
vt 0.493828 0.999930
vt 0.000070 0.999930
vn 1.0000 0.0000 0.0000
vn 0.0000 -1.0000 0.0000
vn 0.0000 1.0000 0.0000
vn -0.0000 -0.0000 1.0000
vn -1.0000 -0.0000 -0.0000
vn 0.0000 0.0000 -1.0000
usemtl MatCabinet
s off
f 2/1/1 3/2/1 1/3/1
f 6/4/2 8/5/2 5/6/2
f 12/7/3 10/8/3 9/9/3
f 15/10/1 18/11/1 9/9/1
f 10/12/4 7/13/4 6/14/4
f 7/15/5 12/16/5 8/17/5
f 5/6/6 12/18/6 9/19/6
f 15/20/2 4/21/2 18/22/2
f 16/23/1 14/24/1 6/25/1
f 2/26/3 14/27/3 16/28/3
f 3/29/6 15/30/6 13/31/6
f 2/32/4 16/33/4 17/34/4
f 2/1/1 4/35/1 3/2/1
f 6/4/2 7/13/2 8/5/2
f 12/7/3 11/36/3 10/8/3
f 17/37/1 5/38/1 9/9/1
f 10/39/1 13/40/1 15/10/1
f 18/11/1 17/37/1 9/9/1
f 10/39/1 15/10/1 9/9/1
f 10/12/4 11/41/4 7/13/4
f 7/15/5 11/36/5 12/16/5
f 5/6/6 8/42/6 12/18/6
f 15/20/2 3/43/2 4/21/2
f 14/24/1 13/40/1 6/25/1
f 13/40/1 10/39/1 6/25/1
f 5/38/1 17/37/1 16/23/1
f 5/38/1 16/23/1 6/25/1
f 2/26/3 1/44/3 14/27/3
f 13/31/6 14/45/6 1/3/6
f 1/3/6 3/29/6 13/31/6
f 17/34/4 18/46/4 4/47/4
f 4/47/4 2/32/4 17/34/4
