# Blender v2.79 (sub 0) OBJ File: 'gearbox.blend'
# www.blender.org
mtllib gearbox_door.mtl
o Door_Cube.002
v 0.900000 0.000000 1.000000
v 0.900000 1.000000 1.000000
v 0.900000 0.000000 -0.000000
v 0.900000 1.000000 -0.000000
v 1.000000 0.000000 1.000000
v 1.000000 1.000000 1.000000
v 1.000000 0.000000 -0.000000
v 1.000000 1.000000 -0.000000
vt 0.999900 0.999900
vt 0.000100 0.000100
vt 0.999900 0.000100
vt 0.000100 0.999900
vt 0.000100 0.000100
vt 0.999900 0.999900
vt 0.000100 0.999900
vt 0.000000 1.000000
vt 1.000000 0.906906
vt 0.000000 0.906906
vt 1.000000 1.000000
vt 0.000000 0.906906
vt 1.000000 0.906906
vt 1.000000 0.086893
vt 0.000000 0.000000
vt 0.000000 0.086893
vt 0.000000 0.093094
vt 1.000000 0.000000
vt 1.000000 0.093094
vt 0.999900 0.000100
vt 1.000000 1.000000
vt 0.000000 1.000000
vt 1.000000 0.000000
vt 0.000000 0.000000
vn 1.0000 0.0000 0.0000
vn -1.0000 0.0000 0.0000
vn 0.0000 0.0000 -1.0000
vn 0.0000 0.0000 1.0000
vn 0.0000 -1.0000 0.0000
vn 0.0000 1.0000 0.0000
usemtl MatDoor
s off
f 8/1/1 5/2/1 7/3/1
f 8/1/1 6/4/1 5/2/1
usemtl MatCabinet
f 2/5/2 3/6/2 1/7/2
f 4/8/3 7/9/3 3/10/3
f 6/11/4 1/12/4 5/13/4
f 7/14/5 1/15/5 3/16/5
f 4/17/6 6/18/6 8/19/6
f 2/5/2 4/20/2 3/6/2
f 4/8/3 8/21/3 7/9/3
f 6/11/4 2/22/4 1/12/4
f 7/14/5 5/23/5 1/15/5
f 4/17/6 2/24/6 6/18/6
